<svg xmlns="http://www.w3.org/2000/svg" version="1.1" xmlns:xlink="http://www.w3.org/1999/xlink" xmlns:svgjs="http://svgjs.dev/svgjs" width="2000" height="2000" viewBox="0 0 2000 2000"><g transform="matrix(1,0,0,1,-0.28443113772425477,-0.28443113772459583)"><svg viewBox="0 0 334 334" data-background-color="#000000" preserveAspectRatio="xMidYMid meet" height="2000" width="2000" xmlns="http://www.w3.org/2000/svg" xmlns:xlink="http://www.w3.org/1999/xlink"><g id="tight-bounds" transform="matrix(1,0,0,1,0.04749999999998522,0.04750000000001364)"><svg viewBox="0 0 333.90454557049503 333.90454557049503" height="333.90454557049503" width="333.90454557049503"><rect width="333.905" height="333.905" fill="url(#7714ee3c-1e3d-4d3a-ba59-d99674296999)" mask="url(#ba63ee54-38fe-4078-a383-fbeb7262b3ae)" data-fill-palette-color="tertiary"></rect><g><svg></svg></g><g><svg viewBox="0 0 333.90454557049503 333.90454557049503" height="333.90454557049503" width="333.90454557049503"><g><path d="M0 166.952c0-92.205 74.747-166.952 166.952-166.952 92.205 0 166.952 74.747 166.953 166.952 0 92.205-74.747 166.952-166.953 166.953-92.205 0-166.952-74.747-166.952-166.953zM166.952 316.63c82.665 0 149.677-67.013 149.678-149.678 0-82.665-67.013-149.677-149.678-149.677-82.665 0-149.677 67.013-149.677 149.677 0 82.665 67.013 149.677 149.677 149.678z" data-fill-palette-color="tertiary" fill="url(#7714ee3c-1e3d-4d3a-ba59-d99674296999)" stroke="transparent"></path><ellipse rx="160.27418187383762" ry="160.27418187383762" cx="166.95227278524752" cy="166.95227278524752" fill="url(#7714ee3c-1e3d-4d3a-ba59-d99674296999)" stroke="transparent" stroke-width="0" fill-opacity="1" data-fill-palette-color="tertiary"></ellipse></g><g transform="matrix(1,0,0,1,101.94495754265178,71.17305217166896)"><svg viewBox="0 0 130.01463048519147 191.55844122715712" height="191.55844122715712" width="130.01463048519147"><g><svg viewBox="0 0 130.01463048519147 191.55844122715712" height="191.55844122715712" width="130.01463048519147"><g><svg viewBox="0 0 130.01463048519147 191.55844122715712" height="191.55844122715712" width="130.01463048519147"><g><svg viewBox="0 0 130.01463048519147 191.55844122715712" height="191.55844122715712" width="130.01463048519147"><g id="textblocktransform"><svg viewBox="0 0 130.01463048519147 191.55844122715712" height="191.55844122715712" width="130.01463048519147" id="textblock"><g><svg viewBox="0 0 130.01463048519147 191.55844122715712" height="191.55844122715712" width="130.01463048519147"><g transform="matrix(1,0,0,1,0,0)"><svg width="130.01463048519147" viewBox="2.95 -35.3 24.400000000000002 35.95" height="191.55844122715712" data-palette-color="#ffffff"><path d="M27.35-5.65L27.35-5.65Q27.35-4.4 26.45-3.25 25.55-2.1 23.98-1.23 22.4-0.35 20.38 0.15 18.35 0.65 16.2 0.65L16.2 0.65Q9.95 0.65 6.45-3.98 2.95-8.6 2.95-17.3L2.95-17.3Q2.95-26.05 6.5-30.68 10.05-35.3 16.45-35.3L16.45-35.3Q18.45-35.3 20.25-34.9 22.05-34.5 23.43-33.83 24.8-33.15 25.6-32.23 26.4-31.3 26.4-30.25L26.4-30.25Q26.4-29.35 25.55-28.63 24.7-27.9 23.15-28.05L23.15-28.05Q22.75-30.7 21.03-32.08 19.3-33.45 16.5-33.45L16.5-33.45Q12.05-33.45 9.73-29.38 7.4-25.3 7.4-17.3L7.4-17.3Q7.4-9.3 9.7-5.25 12-1.2 16.4-1.2L16.4-1.2Q18.2-1.2 19.78-1.93 21.35-2.65 22.48-4.1 23.6-5.55 24-7.65L24-7.65Q24.85-7.75 25.6-7.58 26.35-7.4 26.85-6.95 27.35-6.5 27.35-5.65Z" opacity="1" transform="matrix(1,0,0,1,0,0)" fill="#ffffff" class="wordmark-text-0" data-fill-palette-color="quaternary" id="text-0"></path></svg></g></svg></g></svg></g></svg></g><g></g></svg></g></svg></g></svg></g></svg></g><defs></defs><mask id="ba63ee54-38fe-4078-a383-fbeb7262b3ae"><g id="SvgjsG1086"><svg viewBox="0 0 333.90454557049503 333.90454557049503" height="333.90454557049503" width="333.90454557049503"><g><svg></svg></g><g><svg viewBox="0 0 333.90454557049503 333.90454557049503" height="333.90454557049503" width="333.90454557049503"><g><path d="M0 166.952c0-92.205 74.747-166.952 166.952-166.952 92.205 0 166.952 74.747 166.953 166.952 0 92.205-74.747 166.952-166.953 166.953-92.205 0-166.952-74.747-166.952-166.953zM166.952 316.63c82.665 0 149.677-67.013 149.678-149.678 0-82.665-67.013-149.677-149.678-149.677-82.665 0-149.677 67.013-149.677 149.677 0 82.665 67.013 149.677 149.677 149.678z" fill="white" stroke="transparent"></path><ellipse rx="160.27418187383762" ry="160.27418187383762" cx="166.95227278524752" cy="166.95227278524752" fill="white" stroke="transparent" stroke-width="0" fill-opacity="1"></ellipse></g><g transform="matrix(1,0,0,1,101.94495754265178,71.17305217166896)"><svg viewBox="0 0 130.01463048519147 191.55844122715712" height="191.55844122715712" width="130.01463048519147"><g><svg viewBox="0 0 130.01463048519147 191.55844122715712" height="191.55844122715712" width="130.01463048519147"><g><svg viewBox="0 0 130.01463048519147 191.55844122715712" height="191.55844122715712" width="130.01463048519147"><g><svg viewBox="0 0 130.01463048519147 191.55844122715712" height="191.55844122715712" width="130.01463048519147"><g id="SvgjsG1085"><svg viewBox="0 0 130.01463048519147 191.55844122715712" height="191.55844122715712" width="130.01463048519147" id="SvgjsSvg1084"><g><svg viewBox="0 0 130.01463048519147 191.55844122715712" height="191.55844122715712" width="130.01463048519147"><g transform="matrix(1,0,0,1,0,0)"><svg width="130.01463048519147" viewBox="2.95 -35.3 24.400000000000002 35.95" height="191.55844122715712" data-palette-color="#ffffff"></svg></g></svg></g></svg></g></svg></g><g></g></svg></g></svg></g></svg></g></svg></g><defs><mask></mask></defs></svg></g></mask><linearGradient x1="0" x2="1" y1="0.5" y2="0.5" id="7714ee3c-1e3d-4d3a-ba59-d99674296999"><stop stop-color="#f00b51" offset="0"></stop><stop stop-color="#730062" offset="1"></stop></linearGradient></svg><rect width="333.90454557049503" height="333.90454557049503" fill="none" stroke="none" visibility="hidden"></rect></g></svg></g></svg>